<svg xmlns="http://www.w3.org/2000/svg" width="32" height="32" fill="none"><circle cx="16" cy="16" r="16" fill="#FFABE7"/><path fill="#B8509A" fill-rule="evenodd" d="M3 15.998C3 8.823 8.819 3 16 3c7.182 0 13 5.828 13 13.002C29 23.177 23.181 29 16 29h-1.055v-.047C8.262 28.416 3 22.818 3 15.998zm13.323 10.889c5.867-.171 10.568-4.982 10.568-10.885C26.891 9.991 22.016 5.11 16 5.11S5.109 9.987 5.109 15.998c0 6.01 4.88 10.889 10.891 10.889h.323z" clip-rule="evenodd"/><path fill="#B8509A" fill-rule="evenodd" d="M10.737 6.474c-.145-.046-.295-.093-.45-.146l.677-1.997.305.099c.235.075.53.169.707.233l.01.003.009.004.154.058c.272.103.609.23.89.362l.013.006.055.028c.133.061.331.156.497.235l.23.109.024.012.025.013.02.01c.057.031.163.088.265.15l.028.018.008.005a2.808 2.808 0 0 0 .097.054l.01.005.028.016.03.018.056.032c.074.041.192.11.302.173.114.067.287.17.415.259.137.084.288.188.388.258l.049.034c.077.047.153.1.205.138.075.054.157.115.232.171l.096.072a35.975 35.975 0 0 0 .211.158l.008.005.027.018.027.02c1.164.887 2.2 1.929 3.085 3.09l.001.002a15.584 15.584 0 0 1 2.286 4.246c1.595 4.456 1.126 9.604-1.381 13.668l-1.795-1.107c2.16-3.502 2.577-7.98 1.19-11.853l-.002-.003v-.003a13.476 13.476 0 0 0-1.978-3.674 14.197 14.197 0 0 0-2.663-2.672 6.13 6.13 0 0 1-.167-.122l-.127-.095-.086-.065a11.255 11.255 0 0 0-.192-.142l-.069-.048-.031-.018-.037-.024-.145-.1a4.374 4.374 0 0 0-.253-.167l-.051-.03-.048-.037c.003.002.003.002-.001 0l-.07-.046a25.71 25.71 0 0 0-.538-.314h-.002l-.018-.01-.008-.005a16.242 16.242 0 0 1-.148-.083 2.026 2.026 0 0 1-.083-.051c-.043-.026-.09-.05-.144-.08l-.002-.001-.234-.112c-.163-.077-.344-.164-.47-.222l-.013-.006-.057-.029c-.2-.092-.438-.182-.705-.284l-.178-.067c-.164-.06-.335-.113-.514-.17zm2.576 1.12h.002-.002zm0 0h.002-.002z" clip-rule="evenodd"/><path fill="#B8509A" fill-rule="evenodd" d="M15.177 11.492c3.183-.575 6.12-2.36 8.129-4.9l1.654 1.307c-2.321 2.936-5.71 5-9.408 5.668a15.605 15.605 0 0 1-5.58.005 15.42 15.42 0 0 1-5.227-1.955L5.83 9.809a13.312 13.312 0 0 0 4.513 1.687h.003l.002.001c1.588.292 3.225.284 4.828-.005M9.543 26.689c1.8-9.188 11.164-14.261 18.821-12.174l-.555 2.034c-6.5-1.772-14.636 2.585-16.196 10.545l-2.07-.405z" clip-rule="evenodd"/></svg>